<svg xmlns="http://www.w3.org/2000/svg" viewBox="0 0 100 100">
  <defs>
    <linearGradient id="bg" x1="0%" y1="0%" x2="100%" y2="100%">
      <stop offset="0%" stop-color="#4F46E5"/>
      <stop offset="100%" stop-color="#3B82F6"/>
    </linearGradient>
  </defs>
  <rect width="100" height="100" rx="20" fill="url(#bg)"/>
  <!-- Chat bubble -->
  <path d="M25 38 C25 28 35 20 50 20 C65 20 75 28 75 38 L75 52 C75 62 65 70 50 70 L38 70 L28 78 L30 70 C25 68 22 64 22 58 L22 50" fill="#FFF" opacity="0.95"/>
  <!-- AI brain nodes -->
  <circle cx="42" cy="42" r="4" fill="url(#bg)"/>
  <circle cx="58" cy="42" r="4" fill="url(#bg)"/>
  <circle cx="50" cy="55" r="4" fill="url(#bg)"/>
  <line x1="44" y1="45" x2="48" y2="52" stroke="url(#bg)" stroke-width="2" stroke-linecap="round"/>
  <line x1="56" y1="45" x2="52" y2="52" stroke="url(#bg)" stroke-width="2" stroke-linecap="round"/>
  <line x1="46" y1="42" x2="54" y2="42" stroke="url(#bg)" stroke-width="2" stroke-linecap="round"/>
</svg>
